<?xml version="1.0" standalone="no"?>
<!DOCTYPE svg PUBLIC "-//W3C//DTD SVG 20010904//EN"
 "http://www.w3.org/TR/2001/REC-SVG-20010904/DTD/svg10.dtd">
<svg version="1.0" xmlns="http://www.w3.org/2000/svg"
 width="640.000000pt" height="640.000000pt" viewBox="0 0 640.000000 640.000000"
 preserveAspectRatio="xMidYMid meet">

<g transform="translate(0.000000,640.000000) scale(0.100000,-0.100000)"
fill="#000000" stroke="none">
<path d="M0 3200 l0 -3200 3200 0 3200 0 0 3200 0 3200 -3200 0 -3200 0 0
-3200z m3263 2803 c-35 -2 -91 -2 -125 0 -35 2 -7 3 62 3 69 0 97 -1 63 -3z
m174 -9 c-3 -3 -12 -4 -19 -1 -8 3 -5 6 6 6 11 1 17 -2 13 -5z m-564 -11 c-7
-2 -19 -2 -25 0 -7 3 -2 5 12 5 14 0 19 -2 13 -5z m670 0 c-7 -2 -19 -2 -25 0
-7 3 -2 5 12 5 14 0 19 -2 13 -5z m1418 -610 c13 -16 12 -17 -3 -4 -10 7 -18
15 -18 17 0 8 8 3 21 -13z m-3521 4 c0 -2 -12 -14 -27 -28 l-28 -24 24 28 c23
25 31 32 31 24z m3625 -91 c6 -4 1 -4 -10 2 -11 6 -29 21 -40 34 -19 22 -19
22 10 -2 17 -14 35 -29 40 -34z m-3705 21 c0 -2 -19 -21 -42 -42 l-43 -40 40
43 c36 39 45 47 45 39z m-160 -160 c0 -2 -15 -16 -32 -33 l-33 -29 29 33 c28
30 36 37 36 29z m4076 -79 l29 -33 -32 29 c-18 17 -33 31 -33 33 0 8 8 1 36
-29z m-4165 -16 c-5 -10 -18 -25 -27 -33 -11 -9 -9 -2 6 19 26 35 36 42 21 14z
m-61 -76 c0 -2 -8 -10 -17 -17 -16 -13 -17 -12 -4 4 13 16 21 21 21 13z m-172
-236 c-7 -10 -14 -17 -17 -15 -4 4 18 35 25 35 2 0 -1 -9 -8 -20z m-391 -962
c-3 -8 -6 -5 -6 6 -1 11 2 17 5 13 3 -3 4 -12 1 -19z m5430 -30 c-3 -8 -6 -5
-6 6 -1 11 2 17 5 13 3 -3 4 -12 1 -19z m-4639 -104 c28 -20 28 -58 0 -78 -19
-13 -59 -16 -233 -16 -230 0 -274 -7 -317 -50 -53 -53 -32 -151 39 -186 34
-17 74 -19 393 -25 397 -6 418 -10 490 -78 46 -44 64 -103 57 -183 -9 -105
-71 -167 -193 -193 -85 -18 -862 -22 -895 -5 -22 12 -26 62 -6 78 8 7 162 12
442 14 416 3 432 4 477 25 25 11 52 32 59 45 19 35 15 105 -7 135 -39 52 -70
56 -449 63 -387 7 -408 10 -474 73 -46 44 -61 84 -61 162 0 138 70 202 250
229 14 2 111 4 215 5 158 1 194 -2 213 -15z m1156 0 c23 -22 20 -60 -6 -78
-19 -13 -58 -16 -230 -16 l-208 0 0 -349 c0 -304 -2 -352 -16 -365 -20 -21
-43 -20 -66 1 -17 15 -18 40 -18 365 l0 348 -208 0 c-172 0 -211 3 -230 16
-26 18 -28 50 -5 76 15 17 44 18 494 18 421 0 479 -2 493 -16z m324 -1 c40
-35 592 -752 592 -769 0 -25 -30 -54 -55 -54 -17 0 -49 34 -126 133 -57 72
-127 162 -156 199 l-54 68 -36 -20 c-57 -30 -139 -43 -235 -37 -78 5 -120 17
-190 55 -3 1 -77 -87 -163 -197 -163 -209 -177 -221 -217 -184 -38 34 -60 0
320 488 236 302 264 335 287 335 7 0 22 -8 33 -17z m1600 -7 c97 -31 162 -116
162 -212 0 -51 -28 -128 -57 -156 -30 -29 -107 -67 -135 -68 -10 0 -18 -4 -18
-9 0 -5 47 -75 105 -157 58 -81 105 -153 105 -159 0 -26 -32 -56 -58 -53 -21
2 -50 37 -155 186 l-129 182 -334 0 -334 0 0 -163 c0 -131 -3 -167 -16 -185
-20 -29 -59 -29 -79 2 -14 20 -15 73 -13 406 3 368 4 382 23 397 31 23 856 14
933 -11z m1336 8 c23 -22 20 -60 -6 -78 -20 -14 -80 -16 -460 -16 l-438 0 0
-130 0 -130 356 0 c226 0 362 -4 375 -10 22 -12 26 -59 7 -78 -9 -9 -106 -12
-375 -12 l-364 0 3 -132 3 -133 444 -3 c308 -1 448 -6 458 -13 20 -17 16 -67
-6 -79 -13 -6 -186 -10 -492 -10 -426 0 -474 2 -491 17 -16 14 -18 34 -18 185
l0 168 -73 0 c-78 0 -97 9 -97 46 0 41 25 54 101 54 l69 0 0 167 c0 141 3 169
17 185 15 17 44 18 494 18 421 0 479 -2 493 -16z m243 -16 c-3 -8 -6 -5 -6 6
-1 11 2 17 5 13 3 -3 4 -12 1 -19z m10 -70 c-3 -8 -6 -5 -6 6 -1 11 2 17 5 13
3 -3 4 -12 1 -19z m10 -130 c-3 -8 -6 -5 -6 6 -1 11 2 17 5 13 3 -3 4 -12 1
-19z m-5520 -65 c-2 -16 -4 -5 -4 22 0 28 2 40 4 28 2 -13 2 -35 0 -50z m5530
-155 c-2 -18 -4 -4 -4 32 0 36 2 50 4 33 2 -18 2 -48 0 -65z m-5530 -135 c-2
-16 -4 -5 -4 22 0 28 2 40 4 28 2 -13 2 -35 0 -50z m5520 -45 c-3 -7 -5 -2 -5
12 0 14 2 19 5 13 2 -7 2 -19 0 -25z m-10 -120 c-3 -8 -6 -5 -6 6 -1 11 2 17
5 13 3 -3 4 -12 1 -19z m-10 -70 c-3 -8 -6 -5 -6 6 -1 11 2 17 5 13 3 -3 4
-12 1 -19z m-5470 -40 c-3 -8 -6 -5 -6 6 -1 11 2 17 5 13 3 -3 4 -12 1 -19z
m5450 -80 c-3 -8 -6 -5 -6 6 -1 11 2 17 5 13 3 -3 4 -12 1 -19z m-206 -645
c-12 -20 -14 -14 -5 12 4 9 9 14 11 11 3 -2 0 -13 -6 -23z m-4710 -510 c13
-16 12 -17 -3 -4 -10 7 -18 15 -18 17 0 8 8 3 21 -13z m4359 -57 c0 -2 -8 -10
-17 -17 -16 -13 -17 -12 -4 4 13 16 21 21 21 13z m-50 -59 c0 -2 -10 -12 -22
-23 l-23 -19 19 23 c18 21 26 27 26 19z m-4174 -49 l29 -33 -32 29 c-31 28
-38 36 -30 36 2 0 16 -15 33 -32z m4094 -41 c0 -1 -39 -41 -87 -87 l-88 -85
85 88 c79 81 90 92 90 84z m-3875 -177 c10 -11 16 -20 13 -20 -3 0 -13 9 -23
20 -10 11 -16 20 -13 20 3 0 13 -9 23 -20z m3654 -36 c-13 -14 -37 -35 -54
-46 -16 -12 -7 0 20 25 55 51 71 61 34 21z m-3574 -34 c10 -11 16 -20 13 -20
-3 0 -13 9 -23 20 -10 11 -16 20 -13 20 3 0 13 -9 23 -20z m56 -47 c13 -16 12
-17 -3 -4 -17 13 -22 21 -14 21 2 0 10 -8 17 -17z m409 -269 c0 -2 -9 0 -20 6
-11 6 -20 13 -20 16 0 2 9 0 20 -6 11 -6 20 -13 20 -16z m2595 -4 c-3 -5 -12
-10 -18 -10 -7 0 -6 4 3 10 19 12 23 12 15 0z m-1547 -307 c-10 -2 -26 -2 -35
0 -10 3 -2 5 17 5 19 0 27 -2 18 -5z m530 0 c-10 -2 -26 -2 -35 0 -10 3 -2 5
17 5 19 0 27 -2 18 -5z m-355 -10 c-13 -2 -35 -2 -50 0 -16 2 -5 4 22 4 28 0
40 -2 28 -4z m200 0 c-13 -2 -35 -2 -50 0 -16 2 -5 4 22 4 28 0 40 -2 28 -4z"/>
<path d="M2644 3419 c-106 -138 -103 -129 -36 -113 67 16 170 18 231 3 24 -5
46 -8 48 -5 4 4 -113 161 -152 204 -9 10 -28 -9 -91 -89z"/>
<path d="M2600 3268 c-19 -5 -41 -15 -48 -21 -17 -13 -3 -22 56 -36 l42 -9 0
39 c0 21 -3 39 -7 38 -5 0 -24 -5 -43 -11z"/>
<path d="M2690 3261 c-16 -31 4 -63 37 -59 34 4 52 32 37 56 -16 26 -60 28
-74 3z"/>
<path d="M2805 3240 c0 -22 0 -40 0 -40 17 0 105 34 105 40 0 6 -88 40 -105
40 0 0 0 -18 0 -40z"/>
<path d="M3510 3419 l0 -130 403 3 c362 3 405 5 434 21 46 25 66 59 65 113 -2
61 -21 88 -78 108 -41 14 -105 16 -436 16 l-388 0 0 -131z"/>
</g>
</svg>
